<?xml version="1.0" encoding="UTF-8" standalone="no"?>
<!-- Created with Inkscape (http://www.inkscape.org/) -->

<svg
   xmlns:dc="http://purl.org/dc/elements/1.1/"
   xmlns:cc="http://creativecommons.org/ns#"
   xmlns:rdf="http://www.w3.org/1999/02/22-rdf-syntax-ns#"
   xmlns:svg="http://www.w3.org/2000/svg"
   xmlns="http://www.w3.org/2000/svg"
   xmlns:sodipodi="http://sodipodi.sourceforge.net/DTD/sodipodi-0.dtd"
   xmlns:inkscape="http://www.inkscape.org/namespaces/inkscape"
   width="744.09448819"
   height="1052.3622047"
   id="svg2"
   version="1.1"
   inkscape:version="0.48+devel r9772"
   sodipodi:docname="dischi.svg">
  <defs
     id="defs4" />
  <sodipodi:namedview
     id="base"
     pagecolor="#ffffff"
     bordercolor="#666666"
     borderopacity="1.0"
     inkscape:pageopacity="0.0"
     inkscape:pageshadow="2"
     inkscape:zoom="0.66136926"
     inkscape:cx="372.04724"
     inkscape:cy="526.18109"
     inkscape:document-units="px"
     inkscape:current-layer="layer1"
     showgrid="false"
     inkscape:window-width="1440"
     inkscape:window-height="851"
     inkscape:window-x="0"
     inkscape:window-y="1"
     inkscape:window-maximized="1" />
  <metadata
     id="metadata7">
    <rdf:RDF>
      <cc:Work
         rdf:about="">
        <dc:format>image/svg+xml</dc:format>
        <dc:type
           rdf:resource="http://purl.org/dc/dcmitype/StillImage" />
        <dc:title />
      </cc:Work>
    </rdf:RDF>
  </metadata>
  <g
     inkscape:label="Layer 1"
     inkscape:groupmode="layer"
     id="layer1">
    <g
       id="g3246">
      <rect
         style="color:#000000;fill:#eadcaf;fill-opacity:1;stroke:#000000;stroke-width:1.04999995px;stroke-linecap:butt;stroke-linejoin:miter;stroke-miterlimit:4;stroke-opacity:1;stroke-dasharray:none;stroke-dashoffset:0;marker:none;visibility:visible;display:inline;overflow:visible;enable-background:accumulate"
         id="rect3273"
         width="723.95264"
         height="1041.4757"
         x="8.4672813"
         y="8.4672804"
         ry="0" />
      <rect
         ry="0"
         y="24.95245"
         x="25.708401"
         height="1008.5054"
         width="689.4704"
         id="rect3271"
         style="color:#000000;fill:#1e7481;fill-opacity:1;stroke:#000000;stroke-width:1.00833905px;stroke-linecap:butt;stroke-linejoin:miter;stroke-miterlimit:4;stroke-opacity:1;stroke-dasharray:none;stroke-dashoffset:0;marker:none;visibility:visible;display:inline;overflow:visible;enable-background:accumulate" />
      <g
         transform="translate(5.1019576,56.14962)"
         id="g3323">
        <g
           id="g3282"
           transform="matrix(1.928821,0,0,1.928821,-216.046,-230.38731)">
          <path
             sodipodi:type="arc"
             style="color:#000000;fill:#eadcaf;fill-opacity:1;stroke:none;stroke-width:1;marker:none;visibility:visible;display:inline;overflow:visible;enable-background:accumulate"
             id="path3225"
             sodipodi:cx="188.3087"
             sodipodi:cy="449.62"
             sodipodi:rx="20.837439"
             sodipodi:ry="20.837439"
             d="m 209.14614,449.62 c 0,11.50819 -9.32924,20.83743 -20.83744,20.83743 -11.5082,0 -20.83744,-9.32924 -20.83744,-20.83743 0,-11.5082 9.32924,-20.83744 20.83744,-20.83744 11.5082,0 20.83744,9.32924 20.83744,20.83744 z"
             transform="matrix(7.4216974,0,0,7.4216974,-1080.4212,-2996.1113)" />
          <path
             transform="matrix(6.7316983,0,0,6.7316983,-950.48841,-2685.8739)"
             d="m 209.14614,449.62 c 0,11.50819 -9.32924,20.83743 -20.83744,20.83743 -11.5082,0 -20.83744,-9.32924 -20.83744,-20.83743 0,-11.5082 9.32924,-20.83744 20.83744,-20.83744 11.5082,0 20.83744,9.32924 20.83744,20.83744 z"
             sodipodi:ry="20.837439"
             sodipodi:rx="20.837439"
             sodipodi:cy="449.62"
             sodipodi:cx="188.3087"
             id="path3227"
             style="color:#000000;fill:#8ccabf;fill-opacity:1;stroke:none;stroke-width:1;marker:none;visibility:visible;display:inline;overflow:visible;enable-background:accumulate"
             sodipodi:type="arc" />
          <path
             sodipodi:type="arc"
             style="color:#000000;fill:#74220f;fill-opacity:1;stroke:none;stroke-width:1;marker:none;visibility:visible;display:inline;overflow:visible;enable-background:accumulate"
             id="path3229"
             sodipodi:cx="188.3087"
             sodipodi:cy="449.62"
             sodipodi:rx="20.837439"
             sodipodi:ry="20.837439"
             d="m 209.14614,449.62 c 0,11.50819 -9.32924,20.83743 -20.83744,20.83743 -11.5082,0 -20.83744,-9.32924 -20.83744,-20.83743 0,-11.5082 9.32924,-20.83744 20.83744,-20.83744 11.5082,0 20.83744,9.32924 20.83744,20.83744 z"
             transform="matrix(5.8150941,0,0,5.8150941,-777.88386,-2273.7504)" />
          <path
             transform="matrix(5.2744617,0,0,5.2744617,-676.07808,-2030.6713)"
             d="m 209.14614,449.62 c 0,11.50819 -9.32924,20.83743 -20.83744,20.83743 -11.5082,0 -20.83744,-9.32924 -20.83744,-20.83743 0,-11.5082 9.32924,-20.83744 20.83744,-20.83744 11.5082,0 20.83744,9.32924 20.83744,20.83744 z"
             sodipodi:ry="20.837439"
             sodipodi:rx="20.837439"
             sodipodi:cy="449.62"
             sodipodi:cx="188.3087"
             id="path3231"
             style="color:#000000;fill:#fcba28;fill-opacity:1;stroke:none;stroke-width:1;marker:none;visibility:visible;display:inline;overflow:visible;enable-background:accumulate"
             sodipodi:type="arc" />
          <path
             sodipodi:type="arc"
             style="color:#000000;fill:#791d08;fill-opacity:1;stroke:none;stroke-width:1;marker:none;visibility:visible;display:inline;overflow:visible;enable-background:accumulate"
             id="path3233"
             sodipodi:cx="188.3087"
             sodipodi:cy="449.62"
             sodipodi:rx="20.837439"
             sodipodi:ry="20.837439"
             d="m 209.14614,449.62 c 0,11.50819 -9.32924,20.83743 -20.83744,20.83743 -11.5082,0 -20.83744,-9.32924 -20.83744,-20.83743 0,-11.5082 9.32924,-20.83744 20.83744,-20.83744 11.5082,0 20.83744,9.32924 20.83744,20.83744 z"
             transform="matrix(3.9358846,0,0,3.9358846,-424.01236,-1428.8202)" />
          <path
             transform="matrix(2.7971597,0,0,2.7971597,-209.58055,-916.82672)"
             d="m 209.14614,449.62 c 0,11.50819 -9.32924,20.83743 -20.83744,20.83743 -11.5082,0 -20.83744,-9.32924 -20.83744,-20.83743 0,-11.5082 9.32924,-20.83744 20.83744,-20.83744 11.5082,0 20.83744,9.32924 20.83744,20.83744 z"
             sodipodi:ry="20.837439"
             sodipodi:rx="20.837439"
             sodipodi:cy="449.62"
             sodipodi:cx="188.3087"
             id="path3235"
             style="color:#000000;fill:#8ccabf;fill-opacity:1;stroke:none;stroke-width:1;marker:none;visibility:visible;display:inline;overflow:visible;enable-background:accumulate"
             sodipodi:type="arc" />
          <path
             sodipodi:type="arc"
             style="color:#000000;fill:#eadcaf;fill-opacity:1;stroke:none;stroke-width:1;marker:none;visibility:visible;display:inline;overflow:visible;enable-background:accumulate"
             id="path3237"
             sodipodi:cx="188.3087"
             sodipodi:cy="449.62"
             sodipodi:rx="20.837439"
             sodipodi:ry="20.837439"
             d="m 209.14614,449.62 c 0,11.50819 -9.32924,20.83743 -20.83744,20.83743 -11.5082,0 -20.83744,-9.32924 -20.83744,-20.83743 0,-11.5082 9.32924,-20.83744 20.83744,-20.83744 11.5082,0 20.83744,9.32924 20.83744,20.83744 z"
             transform="matrix(2.42406,0,0,2.42406,-139.32268,-749.07373)" />
        </g>
        <g
           id="g3298">
          <path
             transform="matrix(7.0505726,0,0,7.0505726,-1144.0532,-2538.2606)"
             d="m 209.14614,449.62 c 0,11.50819 -9.32924,20.83743 -20.83744,20.83743 -11.5082,0 -20.83744,-9.32924 -20.83744,-20.83743 0,-11.5082 9.32924,-20.83744 20.83744,-20.83744 11.5082,0 20.83744,9.32924 20.83744,20.83744 z"
             sodipodi:ry="20.837439"
             sodipodi:rx="20.837439"
             sodipodi:cy="449.62"
             sodipodi:cx="188.3087"
             id="path3177"
             style="color:#000000;fill:#eadcaf;fill-opacity:1;stroke:none;stroke-width:1;marker:none;visibility:visible;display:inline;overflow:visible;enable-background:accumulate"
             sodipodi:type="arc" />
          <path
             sodipodi:type="arc"
             style="color:#000000;fill:#8ccabf;fill-opacity:1;stroke:none;stroke-width:1;marker:none;visibility:visible;display:inline;overflow:visible;enable-background:accumulate"
             id="path3175"
             sodipodi:cx="188.3087"
             sodipodi:cy="449.62"
             sodipodi:rx="20.837439"
             sodipodi:ry="20.837439"
             d="m 209.14614,449.62 c 0,11.50819 -9.32924,20.83743 -20.83744,20.83743 -11.5082,0 -20.83744,-9.32924 -20.83744,-20.83743 0,-11.5082 9.32924,-20.83744 20.83744,-20.83744 11.5082,0 20.83744,9.32924 20.83744,20.83744 z"
             transform="matrix(6.3950772,0,0,6.3950772,-1020.6177,-2243.5367)" />
          <path
             transform="matrix(5.5243081,0,0,5.5243081,-856.64428,-1852.0216)"
             d="m 209.14614,449.62 c 0,11.50819 -9.32924,20.83743 -20.83744,20.83743 -11.5082,0 -20.83744,-9.32924 -20.83744,-20.83743 0,-11.5082 9.32924,-20.83744 20.83744,-20.83744 11.5082,0 20.83744,9.32924 20.83744,20.83744 z"
             sodipodi:ry="20.837439"
             sodipodi:rx="20.837439"
             sodipodi:cy="449.62"
             sodipodi:cx="188.3087"
             id="path3173"
             style="color:#000000;fill:#74220f;fill-opacity:1;stroke:none;stroke-width:1;marker:none;visibility:visible;display:inline;overflow:visible;enable-background:accumulate"
             sodipodi:type="arc" />
          <path
             sodipodi:type="arc"
             style="color:#000000;fill:#fcba28;fill-opacity:1;stroke:none;stroke-width:1;marker:none;visibility:visible;display:inline;overflow:visible;enable-background:accumulate"
             id="path3171"
             sodipodi:cx="188.3087"
             sodipodi:cy="449.62"
             sodipodi:rx="20.837439"
             sodipodi:ry="20.837439"
             d="m 209.14614,449.62 c 0,11.50819 -9.32924,20.83743 -20.83744,20.83743 -11.5082,0 -20.83744,-9.32924 -20.83744,-20.83743 0,-11.5082 9.32924,-20.83744 20.83744,-20.83744 11.5082,0 20.83744,9.32924 20.83744,20.83744 z"
             transform="matrix(5.0107103,0,0,5.0107103,-759.92933,-1621.0978)" />
          <path
             transform="matrix(3.7390692,0,0,3.7390692,-520.46825,-1049.3425)"
             d="m 209.14614,449.62 c 0,11.50819 -9.32924,20.83743 -20.83744,20.83743 -11.5082,0 -20.83744,-9.32924 -20.83744,-20.83743 0,-11.5082 9.32924,-20.83744 20.83744,-20.83744 11.5082,0 20.83744,9.32924 20.83744,20.83744 z"
             sodipodi:ry="20.837439"
             sodipodi:rx="20.837439"
             sodipodi:cy="449.62"
             sodipodi:cx="188.3087"
             id="path3169"
             style="color:#000000;fill:#791d08;fill-opacity:1;stroke:none;stroke-width:1;marker:none;visibility:visible;display:inline;overflow:visible;enable-background:accumulate"
             sodipodi:type="arc" />
          <path
             sodipodi:type="arc"
             style="color:#000000;fill:#28727c;fill-opacity:1;stroke:none;stroke-width:1;marker:none;visibility:visible;display:inline;overflow:visible;enable-background:accumulate"
             id="path3167"
             sodipodi:cx="188.3087"
             sodipodi:cy="449.62"
             sodipodi:rx="20.837439"
             sodipodi:ry="20.837439"
             d="m 209.14614,449.62 c 0,11.50819 -9.32924,20.83743 -20.83744,20.83743 -11.5082,0 -20.83744,-9.32924 -20.83744,-20.83743 0,-11.5082 9.32924,-20.83744 20.83744,-20.83744 11.5082,0 20.83744,9.32924 20.83744,20.83744 z"
             transform="matrix(2.6572867,0,0,2.6572867,-316.75918,-562.95139)" />
          <path
             transform="matrix(1.3464253,0,0,1.3464253,-69.912589,26.438081)"
             d="m 209.14614,449.62 c 0,11.50819 -9.32924,20.83743 -20.83744,20.83743 -11.5082,0 -20.83744,-9.32924 -20.83744,-20.83743 0,-11.5082 9.32924,-20.83744 20.83744,-20.83744 11.5082,0 20.83744,9.32924 20.83744,20.83744 z"
             sodipodi:ry="20.837439"
             sodipodi:rx="20.837439"
             sodipodi:cy="449.62"
             sodipodi:cx="188.3087"
             id="path3165"
             style="color:#000000;fill:#fcba28;fill-opacity:1;stroke:none;stroke-width:1;marker:none;visibility:visible;display:inline;overflow:visible;enable-background:accumulate"
             sodipodi:type="arc" />
        </g>
        <g
           id="g3314">
          <path
             sodipodi:type="arc"
             style="color:#000000;fill:#eadcaf;fill-opacity:1;stroke:none;stroke-width:1;marker:none;visibility:visible;display:inline;overflow:visible;enable-background:accumulate"
             id="path3209"
             sodipodi:cx="188.3087"
             sodipodi:cy="449.62"
             sodipodi:rx="20.837439"
             sodipodi:ry="20.837439"
             d="m 209.14614,449.62 c 0,11.50819 -9.32924,20.83743 -20.83744,20.83743 -11.5082,0 -20.83744,-9.32924 -20.83744,-20.83743 0,-11.5082 9.32924,-20.83744 20.83744,-20.83744 11.5082,0 20.83744,9.32924 20.83744,20.83744 z"
             transform="matrix(3.661305,0,0,3.661305,-376.84663,-905.10366)" />
          <path
             transform="matrix(3.3209116,0,0,3.3209116,-312.74758,-752.05594)"
             d="m 209.14614,449.62 c 0,11.50819 -9.32924,20.83743 -20.83744,20.83743 -11.5082,0 -20.83744,-9.32924 -20.83744,-20.83743 0,-11.5082 9.32924,-20.83744 20.83744,-20.83744 11.5082,0 20.83744,9.32924 20.83744,20.83744 z"
             sodipodi:ry="20.837439"
             sodipodi:rx="20.837439"
             sodipodi:cy="449.62"
             sodipodi:cx="188.3087"
             id="path3211"
             style="color:#000000;fill:#8ccabf;fill-opacity:1;stroke:none;stroke-width:1;marker:none;visibility:visible;display:inline;overflow:visible;enable-background:accumulate"
             sodipodi:type="arc" />
          <path
             sodipodi:type="arc"
             style="color:#000000;fill:#74220f;fill-opacity:1;stroke:none;stroke-width:1;marker:none;visibility:visible;display:inline;overflow:visible;enable-background:accumulate"
             id="path3213"
             sodipodi:cx="188.3087"
             sodipodi:cy="449.62"
             sodipodi:rx="20.837439"
             sodipodi:ry="20.837439"
             d="m 209.14614,449.62 c 0,11.50819 -9.32924,20.83743 -20.83744,20.83743 -11.5082,0 -20.83744,-9.32924 -20.83744,-20.83743 0,-11.5082 9.32924,-20.83744 20.83744,-20.83744 11.5082,0 20.83744,9.32924 20.83744,20.83744 z"
             transform="matrix(2.8687283,0,0,2.8687283,-227.59753,-548.7453)" />
          <path
             transform="matrix(2.6020211,0,0,2.6020211,-177.37425,-428.82846)"
             d="m 209.14614,449.62 c 0,11.50819 -9.32924,20.83743 -20.83744,20.83743 -11.5082,0 -20.83744,-9.32924 -20.83744,-20.83743 0,-11.5082 9.32924,-20.83744 20.83744,-20.83744 11.5082,0 20.83744,9.32924 20.83744,20.83744 z"
             sodipodi:ry="20.837439"
             sodipodi:rx="20.837439"
             sodipodi:cy="449.62"
             sodipodi:cx="188.3087"
             id="path3215"
             style="color:#000000;fill:#fcba28;fill-opacity:1;stroke:none;stroke-width:1;marker:none;visibility:visible;display:inline;overflow:visible;enable-background:accumulate"
             sodipodi:type="arc" />
          <path
             sodipodi:type="arc"
             style="color:#000000;fill:#791d08;fill-opacity:1;stroke:none;stroke-width:1;marker:none;visibility:visible;display:inline;overflow:visible;enable-background:accumulate"
             id="path3217"
             sodipodi:cx="188.3087"
             sodipodi:cy="449.62"
             sodipodi:rx="20.837439"
             sodipodi:ry="20.837439"
             d="m 209.14614,449.62 c 0,11.50819 -9.32924,20.83743 -20.83744,20.83743 -11.5082,0 -20.83744,-9.32924 -20.83744,-20.83743 0,-11.5082 9.32924,-20.83744 20.83744,-20.83744 11.5082,0 20.83744,9.32924 20.83744,20.83744 z"
             transform="matrix(1.9416683,0,0,1.9416683,-53.024057,-131.92057)" />
          <path
             transform="matrix(1.3799074,0,0,1.3799074,52.760408,120.65836)"
             d="m 209.14614,449.62 c 0,11.50819 -9.32924,20.83743 -20.83744,20.83743 -11.5082,0 -20.83744,-9.32924 -20.83744,-20.83743 0,-11.5082 9.32924,-20.83744 20.83744,-20.83744 11.5082,0 20.83744,9.32924 20.83744,20.83744 z"
             sodipodi:ry="20.837439"
             sodipodi:rx="20.837439"
             sodipodi:cy="449.62"
             sodipodi:cx="188.3087"
             id="path3219"
             style="color:#000000;fill:#28727c;fill-opacity:1;stroke:none;stroke-width:1;marker:none;visibility:visible;display:inline;overflow:visible;enable-background:accumulate"
             sodipodi:type="arc" />
          <path
             sodipodi:type="arc"
             style="color:#000000;fill:#fcba28;fill-opacity:1;stroke:none;stroke-width:1;marker:none;visibility:visible;display:inline;overflow:visible;enable-background:accumulate"
             id="path3221"
             sodipodi:cx="188.3087"
             sodipodi:cy="449.62"
             sodipodi:rx="20.837439"
             sodipodi:ry="20.837439"
             d="m 209.14614,449.62 c 0,11.50819 -9.32924,20.83743 -20.83744,20.83743 -11.5082,0 -20.83744,-9.32924 -20.83744,-20.83743 0,-11.5082 9.32924,-20.83744 20.83744,-20.83744 11.5082,0 20.83744,9.32924 20.83744,20.83744 z"
             transform="matrix(0.69918771,0,0,0.69918771,180.94584,426.72352)" />
        </g>
      </g>
      <g
         id="text3406"
         style="font-size:98.24211884px;font-style:normal;font-variant:normal;font-weight:bold;font-stretch:normal;text-align:start;line-height:125%;letter-spacing:0px;word-spacing:0px;writing-mode:lr-tb;text-anchor:start;fill:#eadcaf;fill-opacity:1;stroke:none;font-family:Bangla MN;-inkscape-font-specification:Bangla MN Bold">
        <path
           id="path3232"
           style=""
           d="m 127.45042,910.1932 25.70668,53.7057 23.79643,-53.7057 12.28026,0 -34.98511,78.92117 -8.95095,0 -37.55032,-78.92117 19.70301,0" />
        <path
           id="path3234"
           style=""
           d="m 199.66605,910.1932 19.04806,0 0,77.72044 -19.04806,0 0,-77.72044" />
        <path
           id="path3236"
           style=""
           d="m 238.56635,910.1932 12.17111,0 44.31811,49.44854 0,-49.44854 11.95279,0 0,78.92117 -8.24142,0 -48.13864,-54.57895 0,53.37822 -12.06195,0 0,-77.72044" />
        <path
           id="path3238"
           style=""
           d="m 393.46825,910.1932 0,6.60406 -26.90742,0 0,71.11638 -19.04806,0 0,-71.11638 -26.90742,0 0,-6.60406 72.8629,0" />
        <path
           id="path3240"
           style=""
           d="m 435.65438,908.50126 36.40416,79.41238 -19.48469,0 -9.71505,-21.23122 -30.18216,0 -10.20627,21.23122 -12.98979,0 37.93238,-79.41238 8.24142,0 m -19.43011,50.92216 23.41437,0 -11.51616,-25.10632 -11.89821,25.10632" />
        <path
           id="path3242"
           style=""
           d="m 523.57338,949.98126 32.31074,0 0,29.96385 c -2.51072,1.3099 -5.00316,2.52883 -7.47732,3.65679 -2.47432,1.12797 -5.1305,2.11039 -7.96853,2.94726 -2.83817,0.80049 -5.93098,1.41905 -9.27842,1.85569 -3.31118,0.47301 -7.05893,0.70952 -11.24326,0.70952 -6.69507,0 -12.86248,-0.92784 -18.50227,-2.78352 -5.63985,-1.89207 -10.51557,-4.54824 -14.62716,-7.96853 -4.07524,-3.42027 -7.25901,-7.53188 -9.55132,-12.33485 -2.29232,-4.80292 -3.43848,-10.15165 -3.43847,-16.04621 -10e-6,-4.11157 0.5094,-8.00487 1.52821,-11.67989 1.05518,-3.67493 2.52882,-7.05883 4.4209,-10.15169 1.92844,-3.09274 4.25714,-5.85808 6.9861,-8.296 2.76531,-2.47418 5.83993,-4.56637 9.22385,-6.27658 3.42024,-1.71007 7.13161,-3.01996 11.1341,-3.92969 4.00242,-0.90957 8.24138,-1.36439 12.7169,-1.36447 3.96601,8e-5 7.76834,0.52768 11.407,1.58279 3.63853,1.05527 7.00423,2.47432 10.09711,4.25716 3.12911,1.7466 5.93083,3.76602 8.40516,6.05826 2.47416,2.256 4.52996,4.5847 6.16742,6.98611 l -7.85937,7.20442 c -1.63745,-2.32865 -3.36578,-4.49361 -5.185,-6.4949 -1.78299,-2.00116 -3.69325,-3.72949 -5.73079,-5.185 -2.0013,-1.49175 -4.16626,-2.6561 -6.4949,-3.49305 -2.29237,-0.83681 -4.76662,-1.25524 -7.42274,-1.25531 -4.03889,7e-5 -7.78664,0.72778 -11.24326,2.18315 -3.45671,1.41912 -6.44036,3.51131 -8.95095,6.27658 -2.51066,2.72901 -4.4937,6.07652 -5.94911,10.04253 -1.41908,3.96612 -2.1286,8.47797 -2.12857,13.53558 -3e-5,5.0213 0.76407,9.47858 2.29231,13.37185 1.52818,3.85693 3.60218,7.11347 6.222,9.76963 2.61975,2.6198 5.69437,4.62103 9.22385,6.00368 3.56577,1.34629 7.3681,2.01943 11.407,2.01942 2.40141,10e-6 4.67553,-0.30927 6.82237,-0.92784 2.1467,-0.65494 4.11154,-1.61916 5.89452,-2.89268 l 0,-20.68543 -13.2081,0 0,-6.65863" />
        <path
           id="path3244"
           style=""
           d="m 633.1398,910.1932 0,6.60406 -38.96938,0 0,25.65211 32.36533,0 0,6.65863 -32.36533,0 0,30.83711 38.96938,0 0,7.96853 -58.01743,0 0,-77.72044 58.01743,0" />
      </g>
      <g
         id="text4186"
         style="font-size:98.24211884px;font-style:normal;font-variant:normal;font-weight:bold;font-stretch:normal;text-align:start;line-height:125%;letter-spacing:0px;word-spacing:0px;writing-mode:lr-tb;text-anchor:start;fill:#eadcaf;fill-opacity:1;stroke:none;font-family:Bangla MN;-inkscape-font-specification:Bangla MN Bold">
        <path
           id="path3216"
           style=""
           d="m 170.43348,63.285069 36.40416,79.412381 -19.48469,0 -9.71505,-21.23121 -30.18216,0 -10.20627,21.23121 -12.98979,0 37.93237,-79.412381 8.24143,0 m -19.43011,50.922161 23.41437,0 -11.51616,-25.106315 -11.89821,25.106315" />
        <path
           id="path3218"
           style=""
           d="m 216.45632,64.977017 12.17111,0 44.31811,49.448533 0,-49.448533 11.95279,0 0,78.921173 -8.24142,0 -48.13864,-54.578959 0,53.378219 -12.06195,0 0,-77.720433" />
        <path
           id="path3220"
           style=""
           d="m 303.95321,64.977017 12.17111,0 44.31811,49.448533 0,-49.448533 11.95279,0 0,78.921173 -8.24142,0 -48.13864,-54.578959 0,53.378219 -12.06195,0 0,-77.720433" />
        <path
           id="path3222"
           style=""
           d="m 392.26877,64.977017 19.04805,0 0,77.720433 -19.04805,0 0,-77.720433" />
        <path
           id="path3224"
           style=""
           d="m 463.89256,99.034285 c -0.25471,-2.219498 -0.74592,-4.384462 -1.47363,-6.494896 -0.72773,-2.110334 -1.49183,-4.202525 -2.29231,-6.27658 -0.76412,-2.073941 -1.45545,-4.166133 -2.07401,-6.276579 -0.58218,-2.146708 -0.87326,-4.348057 -0.87326,-6.604054 0,-1.091509 0.21831,-2.164894 0.65495,-3.220158 0.47301,-1.05512 1.09157,-1.982961 1.85568,-2.783527 0.7641,-0.836801 1.65556,-1.491748 2.67437,-1.964842 1.05518,-0.509326 2.18315,-0.764028 3.3839,-0.764106 1.20072,7.8e-5 2.32868,0.25478 3.38389,0.764106 1.05518,0.473094 1.96483,1.128041 2.72895,1.964842 0.76409,0.800566 1.36445,1.728407 1.80111,2.783527 0.47299,1.055264 0.7095,2.128649 0.70952,3.220158 -2e-5,2.255997 -0.3093,4.457346 -0.92784,6.604054 -0.5822,2.110446 -1.27353,4.202638 -2.074,6.276579 -0.76412,2.074055 -1.51003,4.166246 -2.23774,6.27658 -0.72773,2.110434 -1.21894,4.275398 -1.47363,6.494896 l -3.76595,0" />
        <path
           id="path3226"
           style=""
           d="m 541.12521,69.670807 -27.34405,74.773173 -13.37185,0 24.23306,-66.095119 -36.13127,0 4.25716,-11.952791 48.35695,0 0,3.274737" />
        <path
           id="path3228"
           style=""
           d="m 586.39079,144.44398 c -4.54828,-1e-5 -8.67809,-1.00062 -12.38943,-3.00185 -3.71139,-2.00122 -6.89516,-4.78475 -9.55131,-8.35058 -2.65619,-3.56581 -4.712,-7.82296 -6.16743,-12.77147 -1.45544,-4.94847 -2.18316,-10.36997 -2.18315,-16.26453 -10e-6,-3.60217 0.32746,-7.077027 0.98242,-10.424582 0.65494,-3.347457 1.60097,-6.476647 2.8381,-9.38758 1.23711,-2.910816 2.74713,-5.566989 4.53006,-7.968527 1.78289,-2.401406 3.78412,-4.457211 6.00368,-6.167422 2.25591,-1.746453 4.71196,-3.092732 7.36816,-4.038843 2.69253,-0.945958 5.54883,-1.418975 8.5689,-1.419053 4.5482,7.8e-5 8.678,1.05527 12.38942,3.16558 3.71132,2.074073 6.89508,4.893983 9.55132,8.459738 2.65611,3.565888 4.69372,7.75027 6.11284,12.553159 1.45537,4.766611 2.18309,9.842449 2.18316,15.22753 -7e-5,5.89456 -0.72779,11.31606 -2.18316,16.26453 -1.41912,4.94851 -3.45673,9.20566 -6.11284,12.77147 -2.65624,3.56583 -5.84,6.34936 -9.55132,8.35058 -3.71142,2.00123 -7.84122,3.00184 -12.38942,3.00185 m 0,-6.4949 c 1.9648,0 3.67494,-0.92784 5.13042,-2.78353 1.45539,-1.85567 2.65613,-4.32992 3.60221,-7.42273 0.94599,-3.12918 1.65551,-6.73139 2.12858,-10.80664 0.47297,-4.11158 0.70948,-8.40512 0.70952,-12.88063 -4e-5,-4.475433 -0.23655,-8.696201 -0.70952,-12.662319 -0.47307,-3.966015 -1.18259,-7.440872 -2.12858,-10.42458 -0.94608,-3.019971 -2.14682,-5.40325 -3.60221,-7.149843 -1.45548,-1.746456 -3.16562,-2.619719 -5.13042,-2.61979 -1.96488,7.1e-5 -3.69321,0.873334 -5.18501,2.61979 -1.45546,1.746593 -2.6562,4.129872 -3.60221,7.149843 -0.94606,2.983708 -1.65558,6.458565 -2.12858,10.42458 -0.47304,3.966118 -0.70955,8.186886 -0.70952,12.662319 -3e-5,4.47551 0.23648,8.76905 0.70952,12.88063 0.473,4.07525 1.18252,7.67746 2.12858,10.80664 0.94601,3.09281 2.14675,5.56706 3.60221,7.42273 1.4918,1.85569 3.22013,2.78353 5.18501,2.78353" />
      </g>
      <path
         d="m 322.82178,487.1318 44.7588,-20.78636 3.68553,7.93596 -6.12812,54.94269 -12.63404,5.86735 6.97842,-55.10603 -32.88661,15.27281 -3.77398,-8.12642"
         id="path3391"
         inkscape:connector-curvature="0"
         style="font-size:70px;font-style:normal;font-variant:normal;font-weight:bold;font-stretch:normal;text-align:start;line-height:125%;letter-spacing:0px;word-spacing:0px;writing-mode:lr-tb;text-anchor:start;fill:#791d08;fill-opacity:1;stroke:none;font-family:GAMECUBEN;-inkscape-font-specification:GAMECUBEN Bold" />
      <path
         d="m 377.87752,475.91901 c -2.08353,-4.48642 -2.73541,-7.93979 -1.95565,-10.36012 0.82213,-2.43989 3.43409,-4.68197 7.83588,-6.72626 l 27.10923,-12.58974 c 4.44412,-2.06383 7.84232,-2.61292 10.19462,-1.64725 2.35224,0.96579 4.57015,3.69189 6.65373,8.17828 l 12.67821,27.29969 c 2.06383,4.44416 2.68473,7.8862 1.86267,10.32611 -0.79949,2.37798 -3.4001,4.58907 -7.80188,6.63329 l -27.10923,12.58975 c -4.40181,2.04424 -7.79019,2.61448 -10.16513,1.71074 -2.35227,-0.96573 -4.56035,-3.67066 -6.62425,-8.1148 l -12.6782,-27.29969 m 24.38748,25.25774 29.01386,-13.47427 -15.50868,-33.39451 -29.01386,13.47427 15.50868,33.39451 m 1.37174,-23.63679 c -0.629,-1.35438 -0.28746,-2.33624 1.02462,-2.94562 l 4.6346,-2.15234 c 1.31206,-0.6093 2.2826,-0.23678 2.91161,1.11759 l 2.18183,4.69809 c 0.62898,1.35443 0.28743,2.33631 -1.02462,2.94561 l -4.6346,2.15235 c -1.31209,0.60937 -2.28262,0.23683 -2.91161,-1.11759 l -2.18183,-4.69809"
         id="path3393"
         inkscape:connector-curvature="0"
         style="font-size:70px;font-style:normal;font-variant:normal;font-weight:bold;font-stretch:normal;text-align:start;line-height:125%;letter-spacing:0px;word-spacing:0px;writing-mode:lr-tb;text-anchor:start;fill:#791d08;fill-opacity:1;stroke:none;font-family:GAMECUBEN;-inkscape-font-specification:GAMECUBEN Bold" />
      <path
         d="m 453.11255,454.7394 c -0.41361,-0.65319 -0.83154,-1.1574 -1.25377,-1.51263 -0.69974,-0.55706 -1.24992,-0.87122 -1.65052,-0.94248 -0.7267,-0.14026 -1.7854,0.11251 -3.17608,0.75832 -2.50926,1.16536 -3.18825,2.98754 -2.03698,5.46655 0.42122,0.907 1.36502,1.79177 2.83143,2.65434 1.45238,0.83238 2.96682,1.32352 4.54329,1.47343 l 9.14146,1.047 c 3.53849,0.89263 6.02379,2.88078 7.4559,5.96445 0.91258,1.96511 1.30202,3.71376 1.1683,5.24596 -0.0992,1.36917 -0.65462,2.78481 -1.6662,4.24691 -1.37112,2.03335 -3.82526,3.87138 -7.36242,5.51406 -6.98364,3.24327 -11.98477,1.61494 -15.00339,-4.88499 l -0.77922,-1.67789 7.07433,-3.28538 c 1.30574,2.8116 2.34895,4.38526 3.12966,4.72099 1.00207,0.41669 2.24379,0.28105 3.72518,-0.40691 1.54183,-0.71604 2.45361,-1.56213 2.73534,-2.53828 0.26767,-1.00637 0.1137,-2.12932 -0.46194,-3.36885 -0.70201,-1.5116 -3.00366,-2.62947 -6.90494,-3.35362 -2.79449,-0.31931 -5.58087,-0.66077 -8.35917,-1.0244 -3.58061,-0.98329 -6.05889,-2.95632 -7.43483,-5.9191 -3.06072,-6.59059 -0.73648,-11.67601 6.97272,-15.25627 6.59062,-3.0607 11.32555,-1.76815 14.2048,3.87765 l -6.89295,3.20114"
         id="path3396"
         inkscape:connector-curvature="0"
         style="font-size:50px;font-style:normal;font-variant:normal;font-weight:bold;font-stretch:normal;text-align:start;line-height:125%;letter-spacing:0px;word-spacing:0px;writing-mode:lr-tb;text-anchor:start;fill:#791d08;fill-opacity:1;stroke:none;font-family:GAMECUBEN;-inkscape-font-specification:GAMECUBEN Bold" />
    </g>
  </g>
</svg>
